<svg width="207" height="364" viewBox="0 0 207 364" fill="none" xmlns="http://www.w3.org/2000/svg">
<path d="M164.734 364C164.734 364 164.764 297.88 164.814 288.79C164.864 279.7 175.624 271.16 181.014 237.17C186.024 205.55 188.524 165.32 190.754 151.15C192.994 136.98 209.354 83.6701 206.684 74.0501C204.024 64.4201 197.474 67.4701 192.744 73.7701C188.014 80.0601 169.074 145.24 167.604 146.97C165.034 150.02 163.274 144.52 164.974 138.03C167.084 129.95 186.434 49.3001 187.014 32.2001C187.604 15.0901 170.804 21.4001 167.694 30.0001C164.584 38.5901 148.864 106.68 143.704 122.71C138.554 138.74 137.344 132.95 136.514 128.5C134.654 118.43 136.734 59.9801 137.334 40.2001C137.944 20.4201 133.214 1.70009 130.354 0.560094C121.484 -2.96991 112.264 6.44009 112.264 33.1801C112.264 46.5601 115.094 77.0301 109.184 137.69C108.424 145.47 103.704 137.07 99.0842 123.88C94.4641 110.69 82.2241 62.5601 78.2341 44.9101C74.2441 27.2601 67.8341 23.5101 63.0141 23.5101C58.2041 23.5101 54.7541 32.3901 57.1041 47.0901C58.9441 58.5601 68.4342 124.02 69.2242 135.25C70.0042 146.48 77.9641 173.47 71.8141 176.76C60.6441 182.73 46.8241 162.42 44.1541 160.58C41.4841 158.74 36.9741 147.33 26.2941 140.06C15.6141 132.79 2.94415 134.65 0.264146 137.36C-1.92585 139.57 11.2441 157.77 18.1841 165.92C25.1241 174.07 44.6441 201.1 49.1541 214.89C50.9841 220.48 60.2942 249.65 70.0742 263.56C79.8541 277.47 83.0641 289.77 84.9141 299.93C86.7641 310.09 80.8242 363.9 80.8242 363.9L164.724 363.99L164.734 364Z" fill="#161616"/>
</svg>
