<svg width="39" height="38" viewBox="0 0 39 38" fill="none" xmlns="http://www.w3.org/2000/svg">
<path d="M38.1837 28.84C38.1837 28.84 39.2537 25.63 38.1837 22.69C37.1137 19.75 29.8137 21.08 26.5137 19.2C23.2137 17.32 16.0037 13.58 14.6737 8.75999C13.3437 3.94999 12.5437 -0.0600051 9.6037 0.729995C6.6637 1.52999 5.3237 3.04 2.1137 5.09C-1.0963 7.14 -0.296303 11.85 3.9737 12.84C8.2537 13.83 16.9137 22.39 19.3937 26.14C21.8737 29.89 21.2337 38.17 26.4937 37.91C31.7537 37.65 37.8237 30.43 38.1737 28.83L38.1837 28.84Z" fill="#3E443E"/>
</svg>
