<svg width="185" height="446" viewBox="0 0 185 446" fill="none" xmlns="http://www.w3.org/2000/svg">
<path d="M172.917 253.694C171.014 243.778 167.709 226.863 167.772 217.201C167.833 207.539 165.811 132.593 165.488 121.578C165.162 110.482 160.268 62.5086 159.289 23.3453C159.077 14.8317 158.917 7.21832 158.935 0.257568H21.4301C23.3878 31.3695 22.9678 45.5236 26.137 62.8349C32.841 99.4453 32.3365 106.892 30.3788 132.675C30.3637 132.868 22.2186 179.996 16.998 195.99C13.5177 206.648 -2.42803 244.802 1.00703 297.485C1.98588 312.498 1.00703 336.295 1.00703 337.301C1.00703 346.44 5.24874 352.966 7.20646 356.881C8.38169 359.229 15.3666 362.428 18.9558 357.534C21.9769 353.413 23.7201 343.791 23.85 341.543C24.1763 335.996 27.56 320.918 28.0917 327.836C28.7443 336.322 28.2247 341.057 28.418 343.174C28.7443 346.764 28.6114 350.57 28.0917 352.966C26.2096 361.613 22.8712 384.622 37.2308 388.54C50.7837 392.235 53.2217 353.292 54.8532 356.232C55.5057 357.407 54.8532 369.286 53.548 376.465C52.7172 381.03 50.5782 398.114 50.9378 403.879C51.4091 411.404 58.7716 418.891 68.8865 415.628C76.0859 413.305 75.7415 393.108 78.678 385.277C79.7596 382.395 81.5149 365.247 82.2672 373.528C82.9198 380.709 82.2672 386.909 82.2672 388.867C82.2672 399.468 74.9137 414.782 75.4152 420.849C76.4666 433.622 98.3337 432.32 102.177 429.661C115.156 425.229 106.947 382.718 117.763 364.981C118.388 363.957 119.488 363.314 120.684 363.226C122.485 363.096 124.18 363.108 125.687 363.19C128.781 363.353 131.008 366.235 130.364 369.265C127.536 382.622 115.446 405.015 125.476 432.879C130.896 447.933 158.869 448.815 165.162 440.099C173.648 428.35 174.289 420.571 175.932 415.296C177.576 410.021 180.31 399.649 181.153 391.797C182.231 381.77 175.428 355.764 178.543 345.782C193.126 299.035 175.059 264.857 172.917 253.691V253.694Z" fill="#171717"/>
</svg>
