<svg width="27" height="46" viewBox="0 0 27 46" fill="none" xmlns="http://www.w3.org/2000/svg">
<path d="M18.2168 43.6576C21.7425 40.2437 19.8422 33.3675 18.8785 28.7361C18.105 25.0775 19.3921 21.6364 21.1413 14.3735C22.4374 8.98675 26.0265 8.6937 26.0175 2.70878C26.0084 -2.79275 19.9389 3.14083 12.963 2.98977C5.02037 2.81756 4.47054 -0.913566 2.51585 0.578888C-0.541569 2.91424 0.567201 6.26167 2.86026 11.3553C5.10801 16.3493 4.18655 24.2285 3.54305 30.2134C3.15634 33.8116 0.262068 38.3464 2.2228 41.4673C4.66994 45.3615 7.48263 45.4854 10.7455 45.4885C14.9993 45.4945 15.9086 45.8963 18.2138 43.6637L18.2168 43.6576Z" fill="#3E443E"/>
</svg>
