<svg width="30" height="123" viewBox="0 0 30 123" fill="none" xmlns="http://www.w3.org/2000/svg">
<path d="M24.7203 87.2138C24.2551 81.1745 21.9922 35.3405 22.7626 24.5519C23.4152 15.4129 30.2702 15.0867 28.6358 6.60323C27.2853 -0.427007 22.4363 0.730099 14.9288 2.03524C9.52088 2.97482 4.44833 -3.59621 0.895442 6.27694C-1.20426 12.1108 3.31542 14.7634 4.81089 23.2468C6.7686 34.3435 9.05258 82.9691 8.07372 94.0658C7.3849 101.882 4.81086 102.226 7.42114 104.51C12.9891 109.383 2.51479 113.718 9.05258 119.848C14.2731 124.743 22.0466 122.096 23.0859 121.48C33.53 115.28 22.7596 112.667 28.959 103.531C31.104 100.371 25.3699 95.6973 24.7173 87.2138H24.7203Z" fill="#3E443E"/>
</svg>
