<svg width="49" height="122" viewBox="0 0 49 122" fill="none" xmlns="http://www.w3.org/2000/svg">
<path d="M24.3636 87.9897C25.2488 81.9987 32.8198 54.0741 41.6325 40.3671C46.5872 32.6601 48.1945 35.9501 48.4845 27.3126C48.7262 20.1585 42.9074 17.089 40.6506 15.2371C36.4059 11.7537 34.0736 -0.877803 30.2065 1.20378C25.9648 3.48777 24.146 9.71439 24.6596 14.9108C26.9436 38.0831 18.4753 65.8506 11.6173 85.5878C9.04324 92.9987 3.38159 95.9262 3.48129 98.2314C3.98884 109.869 -1.05046 110.902 1.84985 116.34C5.21543 122.657 14.0644 121.528 15.1732 121.044C22.5357 117.824 17.7079 114.769 24.0161 106.162C26.2729 103.08 23.1158 96.4096 24.3636 87.9897Z" fill="#3E443E"/>
</svg>
