<svg width="35" height="53" viewBox="0 0 35 53" fill="none" xmlns="http://www.w3.org/2000/svg">
<path d="M26.8567 50.622C35.9958 45.0751 28.7903 37.3983 27.8356 32.347C27.0682 28.359 27.8084 26.0388 28.8144 17.9874C29.467 12.7668 36.9051 15.0659 34.1921 4.22299C32.7359 -1.59879 27.2918 2.74562 18.3703 1.67008C10.4821 0.718419 7.2071 -1.74381 3.35814 2.97525C-2.78086 10.504 0.747866 10.4828 4.01072 16.6823C6.75091 21.8877 5.96842 22.8817 5.31585 29.4104C4.9231 33.3349 -4.80203 41.8123 3.68441 48.0117C7.22823 50.6008 12.1709 52.906 15.4337 52.906C19.6875 52.906 23.9836 52.3652 26.8567 50.622Z" fill="#3E443E"/>
</svg>
