<svg width="24" height="37" viewBox="0 0 24 37" fill="none" xmlns="http://www.w3.org/2000/svg">
<path d="M14.4572 35.2075C16.4662 33.135 14.1067 27.4492 14.001 23.712C13.8711 19.0594 15.43 16.3464 17.6959 13.5186C20.4874 10.0352 24.0735 11.1591 23.0524 5.11677C22.427 1.41585 15.0584 5.19833 12.9557 4.34636C7.02814 1.94152 7.99189 0.152992 5.74415 0.609187C2.63537 1.24061 5.05834 6.11071 6.2517 10.3796C7.42089 14.5669 5.84383 19.5398 4.57796 24.1259C3.81663 26.8842 -0.482471 31.1652 1.19125 33.4462C3.38764 36.4402 4.07344 36.2861 6.6807 36.7121C10.0795 37.268 12.7079 37.0142 14.4572 35.2075Z" fill="#3E443E"/>
</svg>
