<svg width="68" height="57" viewBox="0 0 68 57" fill="none" xmlns="http://www.w3.org/2000/svg">
<path d="M64.7392 40.8387C61.4763 44.1015 63.434 47.6937 56.9053 49.3251C50.3796 50.9566 45.156 50.304 41.8932 51.6091C38.6303 52.9143 37.6514 55.8508 32.4279 56.1771C27.2073 56.5034 23.9414 55.8508 18.7209 54.872C13.5003 53.8931 10.5607 56.1771 7.29786 54.2194C4.03501 52.2617 -0.209729 43.7752 1.09843 39.5335C2.40358 35.2918 2.72987 32.171 2.72987 28.7631C2.72987 24.5214 -1.83814 12.4458 3.05614 10.1618C7.95042 7.87782 11.5426 5.59382 22.6363 2.00166C33.6152 -1.55122 43.1953 1.34909 47.44 2.00166C54.1742 3.03792 65.3888 11.7933 66.3676 17.3401C67.3465 22.887 67.999 37.5728 64.7362 40.8387H64.7392Z" fill="#3E443E"/>
</svg>
