<svg width="37" height="119" viewBox="0 0 37 119" fill="none" xmlns="http://www.w3.org/2000/svg">
<path d="M21.0437 83.9143C21.3368 77.8629 29.213 45.8325 30.207 35.0651C31.9471 16.201 37.4034 15.3581 36.8444 6.73569C36.3822 -0.40633 31.4396 3.13448 29.0105 1.51514C24.4456 -1.53321 21.1283 3.33386 20.8504 7.71455C20.5211 12.9351 20.1978 15.2221 16.935 28.6029C14.2643 39.5485 13.0075 62.461 8.12226 82.7783C6.28841 90.4067 0.940956 93.875 1.26724 96.159C2.91377 107.691 -1.99561 109.213 1.42132 114.34C5.39113 120.295 14.086 118.301 15.1404 117.712C22.1525 113.781 17.0468 111.22 22.4788 102.035C24.4244 98.7482 20.6268 92.4188 21.0377 83.9173L21.0437 83.9143Z" fill="#3E443E"/>
</svg>
