<svg width="24" height="110" viewBox="0 0 24 110" fill="none" xmlns="http://www.w3.org/2000/svg">
<path d="M18.6749 73.706C18.2097 67.6667 18.8834 45.005 19.6538 34.2164C20.3064 25.0774 23.8955 15.6151 22.2641 7.12864C20.9136 0.0984022 15.4091 2.23438 12.7988 0.929234C7.88942 -1.52697 3.37582 9.23742 4.96495 13.3311C7.24895 19.2042 6.92266 25.7329 6.92266 30.9535C6.92266 42.2224 9.20665 69.138 5.29122 78.6003C2.29121 85.8511 -0.584922 88.1381 1.37581 91.0021C5.61752 97.2015 -3.53058 100.211 3.00721 106.341C8.22778 111.235 16.0466 108.661 17.0405 107.972C25.527 102.099 18.6719 99.8118 22.9136 90.0233C24.4333 86.5187 19.3245 82.1894 18.672 73.706H18.6749Z" fill="#3E443E"/>
</svg>
