<svg width="24" height="43" viewBox="0 0 24 43" fill="none" xmlns="http://www.w3.org/2000/svg">
<path d="M18.3906 38.8397C21.59 35.6886 18.306 30.8457 17.4359 26.5707C16.735 23.1961 17.9042 20.0209 19.4903 13.3169C20.6686 8.34709 23.9224 8.07519 23.9164 2.5525C23.9103 -2.52607 18.4027 2.9513 12.0794 2.81534C4.87698 2.65824 4.37849 -0.782852 2.60507 0.594798C-0.168357 2.74889 0.834674 5.83954 2.91323 10.5374C4.9495 15.1447 4.11264 22.4136 3.52654 27.9363C3.17608 31.2566 -0.49163 36.6674 1.76518 38.9817C4.72894 42.024 7.09755 42.027 10.0553 42.03C13.9133 42.033 16.297 40.9061 18.3906 38.8427V38.8397Z" fill="#3E443E"/>
</svg>
