<svg width="88" height="87" viewBox="0 0 88 87" fill="none" xmlns="http://www.w3.org/2000/svg">
<path d="M62.9379 0.49008H0.399861C-0.0563342 5.94025 2.63553 13.4629 4.45427 20.7349C5.45428 24.7409 8.0434 34.4419 8.36969 39.9887C8.69597 45.5356 13.8863 47.457 16.8561 49.1278C22.0767 52.0643 25.6688 51.0855 33.1734 53.6957C38.5662 55.5719 42.5511 55.9646 47.533 55.6535C52.7536 55.3272 55.0406 55.6535 58.3034 57.9375C62.1584 60.6354 61.8926 61.5266 66.4636 70.013C70.0709 76.711 70.8715 81.5871 72.3367 84.6989C72.8745 85.8439 72.9893 88.288 76.2522 85.6778C78.9199 83.5448 85.5513 77.0554 87.0226 70.9919C89.6329 60.2215 83.4334 51.4117 72.3367 33.1337C62.7868 17.4056 61.7325 7.03996 62.9379 0.487061V0.49008Z" fill="#3E443E"/>
</svg>
