<svg width="55" height="102" viewBox="0 0 55 102" fill="none" xmlns="http://www.w3.org/2000/svg">
<path d="M37.4581 26.2349C36.7482 20.2198 39.573 11.5642 37.289 6.31642C33.2708 -2.92229 25.1137 0.0656221 22.6937 2.37077C16.0109 8.73635 1.28279 -3.14285 0.850764 14.5702C0.699706 20.7696 3.92931 22.1533 10.6544 27.5401C15.3916 31.3347 21.4067 51.6157 21.6303 59.4737C21.9807 71.8877 17.8689 93.3319 26.5487 98.767C31.4521 101.836 40.2648 101.713 41.4944 101.743C48.3464 101.909 51.8389 99.2383 53.3676 96.8093C55.1199 94.0298 55.9567 80.0962 53.2226 75.9119C52.0051 74.0569 37.9113 30.096 37.4581 26.2319V26.2349Z" fill="#3E443E"/>
</svg>
