<svg width="90" height="86" viewBox="0 0 90 86" fill="none" xmlns="http://www.w3.org/2000/svg">
<path d="M84.3788 40.2071C85.3576 50.6513 92.2126 56.5244 87.3153 62.4005C82.4211 68.2737 86.7655 77.0532 78.8289 76.7601C70.0162 76.4338 67.4059 75.455 57.288 78.3915C53.1067 79.6061 53.4723 78.5698 52.6082 79.2193C48.6656 82.1771 44.5871 82.7088 42.2759 83.6151C34.7683 86.5517 25.6323 84.9203 18.451 84.9203C11.2697 84.9203 7.35427 85.2466 2.45999 80.6786C-2.43429 76.1106 2.78627 61.751 2.45999 50.0017C2.1337 38.2524 -1.50377 36.8748 4.09142 30.4216C12.5779 20.63 12.2516 21.9351 19.4299 9.20696C25.6263 -1.77496 27.59 -0.9109 44.5599 4.31269C61.5297 9.53325 69.0373 1.04983 75.2367 13.1254C81.4362 25.201 84.3758 40.2131 84.3758 40.2131L84.3788 40.2071Z" fill="#3E443E"/>
</svg>
