<svg width="21" height="39" viewBox="0 0 21 39" fill="none" xmlns="http://www.w3.org/2000/svg">
<path d="M13.8345 35.918C15.6986 33.628 12.9493 27.9603 12.5838 24.1174C12.1306 19.3379 13.4992 16.4255 15.5687 13.3349C18.1155 9.53121 21.7711 10.4073 20.3361 4.26532C19.4569 0.503975 12.2877 4.07196 10.049 3.69432C6.68649 3.12634 4.87076 0.334794 2.65625 0.984344C-0.401164 1.87861 2.4478 6.69736 3.93119 10.9965C5.38739 15.214 4.15778 20.4587 3.21215 25.2805C2.64417 28.1778 -1.35282 32.924 0.474982 35.1386C2.8768 38.051 3.5475 37.8395 6.17893 38.0721C9.61097 38.3773 12.2152 37.909 13.8376 35.915L13.8345 35.918Z" fill="#3E443E"/>
</svg>
